<?xml version="1.0" encoding="UTF-8"?>
<svg id="Layer_1" xmlns="http://www.w3.org/2000/svg" version="1.1" viewBox="0 0 32 32">
  <!-- Generator: Adobe Illustrator 29.0.1, SVG Export Plug-In . SVG Version: 2.1.0 Build 192)  -->
  <rect x="-1" y="-1" width="34" height="34" fill="#282828"/>
  <circle cx="5.71" cy="26.29" r="4.49" fill="#282828"/>
  <circle cx="5.71" cy="26.29" r="3.17" fill="#ff6900"/>
  <path d="M16,3.86c-6.71,0-12.14,5.44-12.14,12.14,0,2.12.55,4.11,1.5,5.84.12,0,.23-.04.35-.04,2.48,0,4.48,2.01,4.48,4.48,0,.12-.03.23-.04.35,1.73.95,3.72,1.5,5.84,1.5,6.71,0,12.14-5.44,12.14-12.14S22.71,3.86,16,3.86ZM18.94,19.79c-.78-.21-1.8-.4-2.94-.4-1.35,0-2.54.27-3.36.52-.74.23-1.18.45-1.18.45l4.54-10.6,4.54,10.6s-.61-.3-1.6-.57Z" fill="#00bedc"/>
  <path d="M16,9.76l-4.54,10.6s.44-.22,1.18-.45c.82-.25,2.01-.52,3.36-.52,1.14,0,2.15.19,2.94.4.99.27,1.6.57,1.6.57l-4.54-10.6Z" fill="#002c44"/>
  <g>
    <path d="M86,31.03c-2.42,0-4.83-.6-6.98-1.73.18-.29.35-.53.5-.79,2.08,1.02,4.23,1.54,6.48,1.54,7.75,0,14.06-6.31,14.06-14.06s-6.31-14.06-14.06-14.06-14.06,6.31-14.06,14.06c0,2.24.53,4.4,1.56,6.41-.28.22-.52.39-.73.58-1.22-2.19-1.81-4.54-1.81-6.99,0-8.29,6.74-15.03,15.03-15.03s15.03,6.74,15.03,15.03-6.74,15.03-15.03,15.03Z" fill="#fff" fill-rule="evenodd"/>
    <path d="M86,1.02c8.26,0,14.98,6.72,14.98,14.98s-6.72,14.98-14.98,14.98c-2.51,0-4.87-.63-6.95-1.72.2-.22.37-.46.52-.72,1.93,1,4.12,1.57,6.43,1.57,7.78,0,14.11-6.33,14.11-14.11s-6.33-14.11-14.11-14.11-14.11,6.33-14.11,14.11c0,2.32.57,4.5,1.57,6.43-.26.15-.5.32-.72.52-1.1-2.08-1.72-4.44-1.72-6.95,0-8.26,6.72-14.98,14.98-14.98M86,.92c-8.32,0-15.08,6.77-15.08,15.08,0,2.46.58,4.81,1.73,7l.06.11.1-.08c.21-.19.45-.36.7-.51l.08-.05-.04-.08c-1.03-2-1.56-4.15-1.56-6.39,0-7.72,6.28-14.01,14.01-14.01s14.01,6.28,14.01,14.01-6.28,14.01-14.01,14.01c-2.23,0-4.38-.52-6.39-1.56l-.08-.04-.05.08c-.15.25-.32.49-.51.7l-.08.1.11.06c2.19,1.15,4.54,1.73,7,1.73,8.32,0,15.08-6.77,15.08-15.08S94.32.92,86,.92h0Z" fill="#fff"/>
  </g>
  <path d="M16,.92C7.69.92.92,7.68.92,16c0,2.46.58,4.81,1.73,7l.06.11.1-.08c.21-.19.45-.36.7-.51l.08-.05-.04-.08c-1.03-2-1.56-4.15-1.56-6.39C1.99,8.28,8.28,1.99,16,1.99s14.01,6.28,14.01,14.01-6.28,14.01-14.01,14.01c-2.23,0-4.38-.52-6.39-1.56l-.08-.04-.05.08c-.15.25-.32.49-.51.7l-.08.1.11.06c2.19,1.15,4.54,1.73,7,1.73,8.32,0,15.08-6.77,15.08-15.08S24.32.92,16,.92ZM2.5,22.46c.08.16.16.32.25.48,0,0,0,0,0,0-.08-.16-.16-.33-.24-.49ZM9.09,29.2s-.02.04-.04.06c0,0,0,0,0,0,.02-.02.03-.04.04-.06Z" fill="#fff"/>
  <line x1="20.54" y1="20.35" x2="16" y2="9.76" fill="#002c44"/>
  <path d="M15.8,13.07v5.2c-.77.01-1.56.1-2.34.27l2.34-5.47" fill="#fff"/>
</svg>